# xmcd
#
# Track frame offsets: 
#        150
#        3495
#        22120
#        38682
#        52007
#        69400
#        83492
#        98402
#        117915
#        133397
#        148457
#        167170
#        178657
#        192552
#
# Disc length: 2753 seconds
#
# Revision: 2
# Processed by: cddbd v1.5.1PL0 Copyright (c) Steve Scherf et al.
# Submitted via: ExactAudioCopy v0.95a5
#
DISCID=c60abf0e
DTITLE=Townes Van Zandt - Live at The Old Quarter, Houston, Texas [Dis
DTITLE=c One]
DYEAR=1973
DGENRE=Folk
TTITLE0=Announcement
TTITLE1=Panch and Lefty
TTITLE2=Mr. Mudd and Mr. Gold
TTITLE3=Don't You Take It Too Bad
TTITLE4=Two Girls
TTITLE5=Fraternity Blues
TTITLE6=If I Needed You
TTITLE7=Brand New Companion
TTITLE8=White Freight Liner Blues
TTITLE9=To Live Is To Fly
TTITLE10=She Came And She Touched Me
TTITLE11=Talking Thunderbird Blues
TTITLE12=Rex's Blues
TTITLE13=Nine Pound Hammer
EXTD=
EXTT0=
EXTT1=
EXTT2=
EXTT3=
EXTT4=
EXTT5=
EXTT6=
EXTT7=
EXTT8=
EXTT9=
EXTT10=
EXTT11=
EXTT12=
EXTT13=
PLAYORDER=
